<mxfile host="app.diagrams.net" modified="2021-06-17T05:14:50.286Z" agent="5.0 (Windows NT 10.0; Win64; x64) AppleWebKit/537.36 (KHTML, like Gecko) Chrome/91.0.4472.101 Safari/537.36" etag="pP34Fu2l-cpENucMA6ax" version="14.7.10" type="github">
  <diagram id="9sjSQOluyWNxVxPV03U9" name="Page-1">
    <mxGraphModel dx="4412" dy="1330" grid="1" gridSize="10" guides="1" tooltips="1" connect="1" arrows="1" fold="1" page="1" pageScale="1" pageWidth="827" pageHeight="1169" math="0" shadow="0">
      <root>
        <mxCell id="0" />
        <mxCell id="1" parent="0" />
        <mxCell id="HafpxJaXgJPL_smQRMil-64" value="" style="shape=card;whiteSpace=wrap;html=1;fillColor=#f9f7ed;strokeColor=#36393d;" vertex="1" parent="1">
          <mxGeometry x="-1020" y="980" width="1088" height="291" as="geometry" />
        </mxCell>
        <mxCell id="3FpeJXdNMxqSQx9x5M5K-36" style="edgeStyle=orthogonalEdgeStyle;rounded=0;orthogonalLoop=1;jettySize=auto;html=1;entryX=0.5;entryY=0;entryDx=0;entryDy=0;fontSize=14;" parent="1" source="m9pNgjzwdB8XfwKqfXNE-1" target="m9pNgjzwdB8XfwKqfXNE-2" edge="1">
          <mxGeometry relative="1" as="geometry" />
        </mxCell>
        <mxCell id="m9pNgjzwdB8XfwKqfXNE-1" value="Start" style="rounded=1;whiteSpace=wrap;html=1;arcSize=37;" parent="1" vertex="1">
          <mxGeometry x="151" y="350" width="120" height="60" as="geometry" />
        </mxCell>
        <mxCell id="3FpeJXdNMxqSQx9x5M5K-37" style="edgeStyle=orthogonalEdgeStyle;rounded=0;orthogonalLoop=1;jettySize=auto;html=1;fontSize=14;" parent="1" source="m9pNgjzwdB8XfwKqfXNE-2" target="m9pNgjzwdB8XfwKqfXNE-16" edge="1">
          <mxGeometry relative="1" as="geometry">
            <Array as="points">
              <mxPoint x="211" y="550" />
              <mxPoint x="211" y="550" />
            </Array>
          </mxGeometry>
        </mxCell>
        <mxCell id="drxS9ock35KbLHNgBIPW-2" value="" style="edgeStyle=orthogonalEdgeStyle;rounded=0;orthogonalLoop=1;jettySize=auto;html=1;" parent="1" source="m9pNgjzwdB8XfwKqfXNE-2" edge="1">
          <mxGeometry relative="1" as="geometry">
            <mxPoint x="211" y="430" as="targetPoint" />
            <Array as="points">
              <mxPoint x="360" y="490" />
              <mxPoint x="360" y="430" />
            </Array>
          </mxGeometry>
        </mxCell>
        <mxCell id="m9pNgjzwdB8XfwKqfXNE-2" value="is Driving cycle?" style="rhombus;whiteSpace=wrap;html=1;fillColor=#dae8fc;strokeColor=#6c8ebf;" parent="1" vertex="1">
          <mxGeometry x="136" y="450" width="150" height="80" as="geometry" />
        </mxCell>
        <mxCell id="l_0DlGyMgCa5keqqPViQ-3" value="" style="edgeStyle=orthogonalEdgeStyle;rounded=0;orthogonalLoop=1;jettySize=auto;html=1;" parent="1" source="m9pNgjzwdB8XfwKqfXNE-12" target="l_0DlGyMgCa5keqqPViQ-1" edge="1">
          <mxGeometry relative="1" as="geometry" />
        </mxCell>
        <mxCell id="m9pNgjzwdB8XfwKqfXNE-12" value="Input driver&#39;s name&lt;br&gt;[DRIVER_NAME]" style="rhombus;whiteSpace=wrap;html=1;fillColor=#d5e8d4;strokeColor=#82b366;" parent="1" vertex="1">
          <mxGeometry x="137" y="692" width="149" height="75" as="geometry" />
        </mxCell>
        <mxCell id="3FpeJXdNMxqSQx9x5M5K-38" style="edgeStyle=orthogonalEdgeStyle;rounded=0;orthogonalLoop=1;jettySize=auto;html=1;fontSize=14;" parent="1" source="m9pNgjzwdB8XfwKqfXNE-16" target="m9pNgjzwdB8XfwKqfXNE-12" edge="1">
          <mxGeometry relative="1" as="geometry" />
        </mxCell>
        <mxCell id="m9pNgjzwdB8XfwKqfXNE-16" value="is velocity zero?" style="rhombus;whiteSpace=wrap;html=1;fillColor=#dae8fc;strokeColor=#6c8ebf;" parent="1" vertex="1">
          <mxGeometry x="137" y="570" width="149" height="80" as="geometry" />
        </mxCell>
        <mxCell id="3FpeJXdNMxqSQx9x5M5K-53" style="edgeStyle=orthogonalEdgeStyle;rounded=0;orthogonalLoop=1;jettySize=auto;html=1;fontSize=14;entryX=0.5;entryY=0;entryDx=0;entryDy=0;" parent="1" target="drxS9ock35KbLHNgBIPW-22" edge="1">
          <mxGeometry relative="1" as="geometry">
            <mxPoint x="210.5" y="1256" as="targetPoint" />
            <mxPoint x="211.00000000000045" y="1183.9999999999995" as="sourcePoint" />
          </mxGeometry>
        </mxCell>
        <mxCell id="3FpeJXdNMxqSQx9x5M5K-54" style="edgeStyle=orthogonalEdgeStyle;rounded=0;orthogonalLoop=1;jettySize=auto;html=1;fontSize=14;exitX=0.5;exitY=1;exitDx=0;exitDy=0;" parent="1" source="drxS9ock35KbLHNgBIPW-28" target="m9pNgjzwdB8XfwKqfXNE-29" edge="1">
          <mxGeometry relative="1" as="geometry">
            <mxPoint x="211.5" y="1424" as="sourcePoint" />
          </mxGeometry>
        </mxCell>
        <mxCell id="3FpeJXdNMxqSQx9x5M5K-55" style="edgeStyle=orthogonalEdgeStyle;rounded=0;orthogonalLoop=1;jettySize=auto;html=1;entryX=0.5;entryY=0;entryDx=0;entryDy=0;fontSize=14;" parent="1" source="m9pNgjzwdB8XfwKqfXNE-29" target="3FpeJXdNMxqSQx9x5M5K-29" edge="1">
          <mxGeometry relative="1" as="geometry" />
        </mxCell>
        <mxCell id="m9pNgjzwdB8XfwKqfXNE-29" value="set the database" style="shape=cylinder3;whiteSpace=wrap;html=1;boundedLbl=1;backgroundOutline=1;size=15;fontSize=14;align=center;" parent="1" vertex="1">
          <mxGeometry x="133" y="1459" width="157" height="80" as="geometry" />
        </mxCell>
        <mxCell id="3FpeJXdNMxqSQx9x5M5K-44" style="edgeStyle=orthogonalEdgeStyle;rounded=0;orthogonalLoop=1;jettySize=auto;html=1;fontSize=14;" parent="1" source="3FpeJXdNMxqSQx9x5M5K-29" target="3FpeJXdNMxqSQx9x5M5K-43" edge="1">
          <mxGeometry relative="1" as="geometry" />
        </mxCell>
        <mxCell id="3FpeJXdNMxqSQx9x5M5K-29" value="save the database at&lt;br&gt;./[DRIVER_ID]/[ODD_START]/" style="whiteSpace=wrap;html=1;align=center;verticalAlign=middle;fillColor=#ffe6cc;strokeColor=#d79b00;" parent="1" vertex="1">
          <mxGeometry x="116.5" y="1579" width="190" height="70" as="geometry" />
        </mxCell>
        <mxCell id="3FpeJXdNMxqSQx9x5M5K-32" style="edgeStyle=orthogonalEdgeStyle;rounded=0;orthogonalLoop=1;jettySize=auto;html=1;exitX=0.5;exitY=1;exitDx=0;exitDy=0;fontSize=14;" parent="1" edge="1">
          <mxGeometry relative="1" as="geometry">
            <mxPoint x="212" y="980" as="targetPoint" />
            <mxPoint x="211.5" y="902" as="sourcePoint" />
            <Array as="points">
              <mxPoint x="212" y="940" />
              <mxPoint x="212" y="940" />
            </Array>
          </mxGeometry>
        </mxCell>
        <mxCell id="3FpeJXdNMxqSQx9x5M5K-43" value="End" style="rounded=1;whiteSpace=wrap;html=1;arcSize=37;" parent="1" vertex="1">
          <mxGeometry x="151.5" y="1693" width="120" height="60" as="geometry" />
        </mxCell>
        <mxCell id="3FpeJXdNMxqSQx9x5M5K-57" style="edgeStyle=orthogonalEdgeStyle;rounded=0;orthogonalLoop=1;jettySize=auto;html=1;fontSize=14;" parent="1" edge="1">
          <mxGeometry relative="1" as="geometry">
            <mxPoint x="211.5" y="1304" as="sourcePoint" />
            <mxPoint x="211.5" y="1344" as="targetPoint" />
          </mxGeometry>
        </mxCell>
        <mxCell id="3FpeJXdNMxqSQx9x5M5K-62" value="" style="shape=table;html=1;whiteSpace=wrap;startSize=0;container=1;collapsible=0;childLayout=tableLayout;fontSize=14;align=left;" parent="1" vertex="1">
          <mxGeometry x="359" y="350" width="180" height="40" as="geometry" />
        </mxCell>
        <mxCell id="3FpeJXdNMxqSQx9x5M5K-63" value="" style="shape=partialRectangle;html=1;whiteSpace=wrap;collapsible=0;dropTarget=0;pointerEvents=0;fillColor=none;top=0;left=0;bottom=0;right=0;points=[[0,0.5],[1,0.5]];portConstraint=eastwest;" parent="3FpeJXdNMxqSQx9x5M5K-62" vertex="1">
          <mxGeometry width="180" height="40" as="geometry" />
        </mxCell>
        <mxCell id="3FpeJXdNMxqSQx9x5M5K-64" value="중후" style="shape=partialRectangle;html=1;whiteSpace=wrap;connectable=0;fillColor=#ffe6cc;top=0;left=0;bottom=0;right=0;overflow=hidden;strokeColor=#d79b00;" parent="3FpeJXdNMxqSQx9x5M5K-63" vertex="1">
          <mxGeometry width="60" height="40" as="geometry" />
        </mxCell>
        <mxCell id="3FpeJXdNMxqSQx9x5M5K-65" value="태산" style="shape=partialRectangle;html=1;whiteSpace=wrap;connectable=0;fillColor=#dae8fc;top=0;left=0;bottom=0;right=0;overflow=hidden;strokeColor=#6c8ebf;" parent="3FpeJXdNMxqSQx9x5M5K-63" vertex="1">
          <mxGeometry x="60" width="60" height="40" as="geometry" />
        </mxCell>
        <mxCell id="3FpeJXdNMxqSQx9x5M5K-66" value="정환" style="shape=partialRectangle;html=1;whiteSpace=wrap;connectable=0;fillColor=#d5e8d4;top=0;left=0;bottom=0;right=0;overflow=hidden;strokeColor=#82b366;" parent="3FpeJXdNMxqSQx9x5M5K-63" vertex="1">
          <mxGeometry x="120" width="60" height="40" as="geometry" />
        </mxCell>
        <mxCell id="3FpeJXdNMxqSQx9x5M5K-80" value="Yes" style="text;html=1;strokeColor=none;fillColor=none;align=center;verticalAlign=middle;whiteSpace=wrap;rounded=0;fontSize=14;" parent="1" vertex="1">
          <mxGeometry x="177" y="528" width="40" height="20" as="geometry" />
        </mxCell>
        <mxCell id="3FpeJXdNMxqSQx9x5M5K-82" value="Yes" style="text;html=1;strokeColor=none;fillColor=none;align=center;verticalAlign=middle;whiteSpace=wrap;rounded=0;fontSize=14;" parent="1" vertex="1">
          <mxGeometry x="176" y="648" width="40" height="20" as="geometry" />
        </mxCell>
        <mxCell id="3FpeJXdNMxqSQx9x5M5K-83" value="Existed" style="text;html=1;strokeColor=none;fillColor=none;align=center;verticalAlign=middle;whiteSpace=wrap;rounded=0;fontSize=14;" parent="1" vertex="1">
          <mxGeometry x="166" y="767" width="40" height="20" as="geometry" />
        </mxCell>
        <mxCell id="3FpeJXdNMxqSQx9x5M5K-85" value="Valid" style="text;html=1;strokeColor=none;fillColor=none;align=center;verticalAlign=middle;whiteSpace=wrap;rounded=0;fontSize=14;" parent="1" vertex="1">
          <mxGeometry x="394" y="1055" width="40" height="20" as="geometry" />
        </mxCell>
        <mxCell id="3FpeJXdNMxqSQx9x5M5K-90" value="Invalid" style="text;html=1;strokeColor=none;fillColor=none;align=center;verticalAlign=middle;whiteSpace=wrap;rounded=0;fontSize=14;" parent="1" vertex="1">
          <mxGeometry x="534" y="994" width="40" height="20" as="geometry" />
        </mxCell>
        <mxCell id="3FpeJXdNMxqSQx9x5M5K-91" value="New" style="text;html=1;strokeColor=none;fillColor=none;align=center;verticalAlign=middle;whiteSpace=wrap;rounded=0;fontSize=14;" parent="1" vertex="1">
          <mxGeometry x="286" y="710" width="40" height="20" as="geometry" />
        </mxCell>
        <mxCell id="3FpeJXdNMxqSQx9x5M5K-93" value="No" style="text;html=1;strokeColor=none;fillColor=none;align=center;verticalAlign=middle;whiteSpace=wrap;rounded=0;fontSize=14;" parent="1" vertex="1">
          <mxGeometry x="288" y="589.5" width="42" height="21" as="geometry" />
        </mxCell>
        <mxCell id="3FpeJXdNMxqSQx9x5M5K-94" value="No" style="text;html=1;strokeColor=none;fillColor=none;align=center;verticalAlign=middle;whiteSpace=wrap;rounded=0;fontSize=14;" parent="1" vertex="1">
          <mxGeometry x="289" y="470" width="40" height="20" as="geometry" />
        </mxCell>
        <mxCell id="drxS9ock35KbLHNgBIPW-4" value="" style="edgeStyle=orthogonalEdgeStyle;rounded=0;orthogonalLoop=1;jettySize=auto;html=1;" parent="1" edge="1">
          <mxGeometry relative="1" as="geometry">
            <mxPoint x="285" y="610" as="sourcePoint" />
            <mxPoint x="210" y="550" as="targetPoint" />
            <Array as="points">
              <mxPoint x="359" y="610" />
              <mxPoint x="359" y="550" />
            </Array>
          </mxGeometry>
        </mxCell>
        <mxCell id="drxS9ock35KbLHNgBIPW-10" style="edgeStyle=orthogonalEdgeStyle;rounded=0;orthogonalLoop=1;jettySize=auto;html=1;fontSize=14;" parent="1" target="drxS9ock35KbLHNgBIPW-11" edge="1">
          <mxGeometry relative="1" as="geometry">
            <mxPoint x="211.5" y="767" as="sourcePoint" />
          </mxGeometry>
        </mxCell>
        <mxCell id="drxS9ock35KbLHNgBIPW-11" value="Input oddmetry&lt;br&gt;[START_ODD]" style="rhombus;whiteSpace=wrap;html=1;fillColor=#d5e8d4;strokeColor=#82b366;" parent="1" vertex="1">
          <mxGeometry x="137" y="833" width="149" height="75" as="geometry" />
        </mxCell>
        <mxCell id="drxS9ock35KbLHNgBIPW-12" value="Invalid" style="text;html=1;strokeColor=none;fillColor=none;align=center;verticalAlign=middle;whiteSpace=wrap;rounded=0;fontSize=14;" parent="1" vertex="1">
          <mxGeometry x="293" y="851" width="40" height="20" as="geometry" />
        </mxCell>
        <mxCell id="drxS9ock35KbLHNgBIPW-13" value="" style="edgeStyle=orthogonalEdgeStyle;rounded=0;orthogonalLoop=1;jettySize=auto;html=1;" parent="1" edge="1">
          <mxGeometry relative="1" as="geometry">
            <mxPoint x="285" y="871" as="sourcePoint" />
            <mxPoint x="210" y="790" as="targetPoint" />
            <Array as="points">
              <mxPoint x="359" y="871" />
              <mxPoint x="359" y="790" />
              <mxPoint x="210" y="790" />
            </Array>
          </mxGeometry>
        </mxCell>
        <mxCell id="drxS9ock35KbLHNgBIPW-15" value="Valid" style="text;html=1;strokeColor=none;fillColor=none;align=center;verticalAlign=middle;whiteSpace=wrap;rounded=0;fontSize=14;" parent="1" vertex="1">
          <mxGeometry x="171" y="909" width="40" height="20" as="geometry" />
        </mxCell>
        <mxCell id="drxS9ock35KbLHNgBIPW-20" value="Data Receiving System Structure" style="rounded=0;whiteSpace=wrap;html=1;" parent="1" vertex="1">
          <mxGeometry x="-989" y="980" width="188" height="30" as="geometry" />
        </mxCell>
        <mxCell id="drxS9ock35KbLHNgBIPW-22" value="is velocity zero?" style="rhombus;whiteSpace=wrap;html=1;fillColor=#dae8fc;strokeColor=#6c8ebf;" parent="1" vertex="1">
          <mxGeometry x="137" y="1225" width="149" height="80" as="geometry" />
        </mxCell>
        <mxCell id="drxS9ock35KbLHNgBIPW-23" value="Yes" style="text;html=1;strokeColor=none;fillColor=none;align=center;verticalAlign=middle;whiteSpace=wrap;rounded=0;fontSize=14;" parent="1" vertex="1">
          <mxGeometry x="173" y="1303" width="40" height="20" as="geometry" />
        </mxCell>
        <mxCell id="drxS9ock35KbLHNgBIPW-24" value="No" style="text;html=1;strokeColor=none;fillColor=none;align=center;verticalAlign=middle;whiteSpace=wrap;rounded=0;fontSize=14;" parent="1" vertex="1">
          <mxGeometry x="288" y="1244.5" width="42" height="21" as="geometry" />
        </mxCell>
        <mxCell id="drxS9ock35KbLHNgBIPW-25" value="" style="edgeStyle=orthogonalEdgeStyle;rounded=0;orthogonalLoop=1;jettySize=auto;html=1;" parent="1" edge="1">
          <mxGeometry relative="1" as="geometry">
            <mxPoint x="285" y="1265" as="sourcePoint" />
            <mxPoint x="210" y="1205" as="targetPoint" />
            <Array as="points">
              <mxPoint x="359" y="1265" />
              <mxPoint x="359" y="1205" />
            </Array>
          </mxGeometry>
        </mxCell>
        <mxCell id="drxS9ock35KbLHNgBIPW-28" value="Input oddmetry&lt;br&gt;[END_ODD]" style="rhombus;whiteSpace=wrap;html=1;fillColor=#d5e8d4;strokeColor=#82b366;" parent="1" vertex="1">
          <mxGeometry x="137" y="1345" width="149" height="75" as="geometry" />
        </mxCell>
        <mxCell id="drxS9ock35KbLHNgBIPW-29" value="Invalid" style="text;html=1;strokeColor=none;fillColor=none;align=center;verticalAlign=middle;whiteSpace=wrap;rounded=0;fontSize=14;" parent="1" vertex="1">
          <mxGeometry x="293" y="1363" width="40" height="20" as="geometry" />
        </mxCell>
        <mxCell id="drxS9ock35KbLHNgBIPW-30" value="" style="edgeStyle=orthogonalEdgeStyle;rounded=0;orthogonalLoop=1;jettySize=auto;html=1;" parent="1" edge="1">
          <mxGeometry relative="1" as="geometry">
            <mxPoint x="285" y="1383" as="sourcePoint" />
            <mxPoint x="210" y="1323" as="targetPoint" />
            <Array as="points">
              <mxPoint x="359" y="1383" />
              <mxPoint x="359" y="1323" />
            </Array>
          </mxGeometry>
        </mxCell>
        <mxCell id="drxS9ock35KbLHNgBIPW-31" value="Valid" style="text;html=1;strokeColor=none;fillColor=none;align=center;verticalAlign=middle;whiteSpace=wrap;rounded=0;fontSize=14;" parent="1" vertex="1">
          <mxGeometry x="172" y="1422" width="40" height="20" as="geometry" />
        </mxCell>
        <mxCell id="l_0DlGyMgCa5keqqPViQ-5" value="" style="edgeStyle=orthogonalEdgeStyle;rounded=0;orthogonalLoop=1;jettySize=auto;html=1;" parent="1" source="l_0DlGyMgCa5keqqPViQ-1" edge="1">
          <mxGeometry relative="1" as="geometry">
            <mxPoint x="210" y="790" as="targetPoint" />
            <Array as="points">
              <mxPoint x="434" y="790" />
            </Array>
          </mxGeometry>
        </mxCell>
        <mxCell id="l_0DlGyMgCa5keqqPViQ-1" value="Update DRIVER_LIST" style="rounded=0;whiteSpace=wrap;html=1;fillColor=#fff2cc;strokeColor=#d6b656;" parent="1" vertex="1">
          <mxGeometry x="359" y="710" width="150" height="39" as="geometry" />
        </mxCell>
        <mxCell id="HafpxJaXgJPL_smQRMil-31" value="Receiving System 1&lt;br&gt;&lt;br&gt;&lt;div style=&quot;text-align: right&quot;&gt;&lt;span&gt;Receive the vision sensor data&lt;/span&gt;&lt;/div&gt;" style="whiteSpace=wrap;html=1;align=left;verticalAlign=top;fillColor=#ffe6cc;strokeColor=#d79b00;" vertex="1" parent="1">
          <mxGeometry x="-1000" y="1034" width="193" height="70" as="geometry" />
        </mxCell>
        <mxCell id="HafpxJaXgJPL_smQRMil-32" value="" style="shape=document;whiteSpace=wrap;html=1;boundedLbl=1;fontSize=14;align=left;" vertex="1" parent="1">
          <mxGeometry x="-962" y="1142" width="120" height="80" as="geometry" />
        </mxCell>
        <mxCell id="HafpxJaXgJPL_smQRMil-33" value="" style="shape=document;whiteSpace=wrap;html=1;boundedLbl=1;fontSize=14;align=left;" vertex="1" parent="1">
          <mxGeometry x="-952" y="1152" width="120" height="80" as="geometry" />
        </mxCell>
        <mxCell id="HafpxJaXgJPL_smQRMil-34" value="" style="shape=document;whiteSpace=wrap;html=1;boundedLbl=1;fontSize=14;align=left;" vertex="1" parent="1">
          <mxGeometry x="-942" y="1162" width="120" height="80" as="geometry" />
        </mxCell>
        <mxCell id="HafpxJaXgJPL_smQRMil-35" value="&#xa;&#xa;&lt;span style=&quot;color: rgb(0, 0, 0); font-family: helvetica; font-size: 14px; font-style: normal; font-weight: 400; letter-spacing: normal; text-indent: 0px; text-transform: none; word-spacing: 0px; background-color: rgb(248, 249, 250); display: inline; float: none;&quot;&gt;*_RGB.avi&lt;/span&gt;&lt;br style=&quot;color: rgb(0, 0, 0); font-family: helvetica; font-size: 14px; font-style: normal; font-weight: 400; letter-spacing: normal; text-indent: 0px; text-transform: none; word-spacing: 0px; background-color: rgb(248, 249, 250);&quot;&gt;&lt;span style=&quot;color: rgb(0, 0, 0); font-family: helvetica; font-size: 14px; font-style: normal; font-weight: 400; letter-spacing: normal; text-indent: 0px; text-transform: none; word-spacing: 0px; background-color: rgb(248, 249, 250); display: inline; float: none;&quot;&gt;*_Depth.avi&lt;/span&gt;&lt;br style=&quot;color: rgb(0, 0, 0); font-family: helvetica; font-size: 14px; font-style: normal; font-weight: 400; letter-spacing: normal; text-indent: 0px; text-transform: none; word-spacing: 0px; background-color: rgb(248, 249, 250);&quot;&gt;&lt;span style=&quot;color: rgb(0, 0, 0); font-family: helvetica; font-size: 14px; font-style: normal; font-weight: 400; letter-spacing: normal; text-indent: 0px; text-transform: none; word-spacing: 0px; background-color: rgb(248, 249, 250); display: inline; float: none;&quot;&gt;*_IR.avi&lt;/span&gt;&#xa;&#xa;" style="shape=document;whiteSpace=wrap;html=1;boundedLbl=1;fontSize=14;align=left;verticalAlign=middle;" vertex="1" parent="1">
          <mxGeometry x="-932" y="1172" width="120" height="80" as="geometry" />
        </mxCell>
        <mxCell id="HafpxJaXgJPL_smQRMil-36" value="Receiving&amp;nbsp;System 2&lt;br&gt;&lt;br&gt;&lt;span style=&quot;text-align: right&quot;&gt;Receive&amp;nbsp;&lt;/span&gt;&lt;span style=&quot;text-align: right&quot;&gt;the audio sensor data&lt;/span&gt;&lt;span style=&quot;text-align: right&quot;&gt;&lt;br&gt;&lt;/span&gt;" style="whiteSpace=wrap;html=1;align=left;verticalAlign=top;fillColor=#ffe6cc;strokeColor=#d79b00;" vertex="1" parent="1">
          <mxGeometry x="-787" y="1034" width="190" height="70" as="geometry" />
        </mxCell>
        <mxCell id="HafpxJaXgJPL_smQRMil-37" style="edgeStyle=orthogonalEdgeStyle;rounded=0;orthogonalLoop=1;jettySize=auto;html=1;fontSize=14;" edge="1" parent="1" source="HafpxJaXgJPL_smQRMil-38" target="HafpxJaXgJPL_smQRMil-44">
          <mxGeometry relative="1" as="geometry" />
        </mxCell>
        <mxCell id="HafpxJaXgJPL_smQRMil-38" value="Receiving&amp;nbsp;System 3&lt;br&gt;&lt;br&gt;&lt;span style=&quot;text-align: right&quot;&gt;Receive&amp;nbsp;&lt;/span&gt;&lt;span style=&quot;text-align: right&quot;&gt;the bio-physiology data&lt;/span&gt;&lt;span style=&quot;text-align: right&quot;&gt;&lt;br&gt;&lt;/span&gt;" style="whiteSpace=wrap;html=1;align=left;verticalAlign=top;fillColor=#ffe6cc;strokeColor=#d79b00;" vertex="1" parent="1">
          <mxGeometry x="-574.5" y="1034" width="190" height="70" as="geometry" />
        </mxCell>
        <mxCell id="HafpxJaXgJPL_smQRMil-39" value="Receiving&amp;nbsp;System 4&lt;br&gt;&lt;br&gt;&lt;span style=&quot;text-align: right&quot;&gt;Receive&amp;nbsp;&lt;/span&gt;&lt;span style=&quot;text-align: right&quot;&gt;the CAN data&lt;/span&gt;&lt;span style=&quot;text-align: right&quot;&gt;&lt;br&gt;&lt;/span&gt;" style="whiteSpace=wrap;html=1;align=left;verticalAlign=top;fillColor=#dae8fc;strokeColor=#6c8ebf;" vertex="1" parent="1">
          <mxGeometry x="-362" y="1034" width="190" height="70" as="geometry" />
        </mxCell>
        <mxCell id="HafpxJaXgJPL_smQRMil-40" value="" style="shape=document;whiteSpace=wrap;html=1;boundedLbl=1;fontSize=14;align=left;" vertex="1" parent="1">
          <mxGeometry x="-752" y="1142" width="120" height="80" as="geometry" />
        </mxCell>
        <mxCell id="HafpxJaXgJPL_smQRMil-41" value="" style="shape=document;whiteSpace=wrap;html=1;boundedLbl=1;fontSize=14;align=left;" vertex="1" parent="1">
          <mxGeometry x="-742" y="1152" width="120" height="80" as="geometry" />
        </mxCell>
        <mxCell id="HafpxJaXgJPL_smQRMil-42" value="" style="shape=document;whiteSpace=wrap;html=1;boundedLbl=1;fontSize=14;align=left;" vertex="1" parent="1">
          <mxGeometry x="-732" y="1162" width="120" height="80" as="geometry" />
        </mxCell>
        <mxCell id="HafpxJaXgJPL_smQRMil-43" value="&#xa;&#xa;&lt;span style=&quot;color: rgb(0, 0, 0); font-family: helvetica; font-size: 14px; font-style: normal; font-weight: 400; letter-spacing: normal; text-align: left; text-indent: 0px; text-transform: none; word-spacing: 0px; background-color: rgb(248, 249, 250); display: inline; float: none;&quot;&gt;*.wav&lt;/span&gt;&#xa;&#xa;" style="shape=document;whiteSpace=wrap;html=1;boundedLbl=1;fontSize=14;align=left;verticalAlign=bottom;" vertex="1" parent="1">
          <mxGeometry x="-722" y="1172" width="120" height="80" as="geometry" />
        </mxCell>
        <mxCell id="HafpxJaXgJPL_smQRMil-44" value="" style="shape=document;whiteSpace=wrap;html=1;boundedLbl=1;fontSize=14;align=left;" vertex="1" parent="1">
          <mxGeometry x="-539.5" y="1144" width="120" height="80" as="geometry" />
        </mxCell>
        <mxCell id="HafpxJaXgJPL_smQRMil-45" value="" style="shape=document;whiteSpace=wrap;html=1;boundedLbl=1;fontSize=14;align=left;" vertex="1" parent="1">
          <mxGeometry x="-530" y="1154" width="120" height="80" as="geometry" />
        </mxCell>
        <mxCell id="HafpxJaXgJPL_smQRMil-46" value="" style="shape=document;whiteSpace=wrap;html=1;boundedLbl=1;fontSize=14;align=left;" vertex="1" parent="1">
          <mxGeometry x="-520" y="1164" width="120" height="80" as="geometry" />
        </mxCell>
        <mxCell id="HafpxJaXgJPL_smQRMil-47" value="&#xa;&#xa;&lt;span style=&quot;color: rgb(0, 0, 0); font-family: helvetica; font-size: 14px; font-style: normal; font-weight: 400; letter-spacing: normal; text-align: left; text-indent: 0px; text-transform: none; word-spacing: 0px; background-color: rgb(248, 249, 250); display: inline; float: none;&quot;&gt;*.csv&lt;/span&gt;&#xa;&#xa;" style="shape=document;whiteSpace=wrap;html=1;boundedLbl=1;fontSize=14;align=left;verticalAlign=bottom;" vertex="1" parent="1">
          <mxGeometry x="-510" y="1174" width="120" height="80" as="geometry" />
        </mxCell>
        <mxCell id="HafpxJaXgJPL_smQRMil-48" value="" style="shape=document;whiteSpace=wrap;html=1;boundedLbl=1;fontSize=14;align=left;" vertex="1" parent="1">
          <mxGeometry x="-327" y="1144" width="120" height="80" as="geometry" />
        </mxCell>
        <mxCell id="HafpxJaXgJPL_smQRMil-49" value="" style="shape=document;whiteSpace=wrap;html=1;boundedLbl=1;fontSize=14;align=left;" vertex="1" parent="1">
          <mxGeometry x="-317" y="1154" width="120" height="80" as="geometry" />
        </mxCell>
        <mxCell id="HafpxJaXgJPL_smQRMil-50" value="" style="shape=document;whiteSpace=wrap;html=1;boundedLbl=1;fontSize=14;align=left;" vertex="1" parent="1">
          <mxGeometry x="-307" y="1164" width="120" height="80" as="geometry" />
        </mxCell>
        <mxCell id="HafpxJaXgJPL_smQRMil-51" value="&#xa;&#xa;&lt;span style=&quot;color: rgb(0, 0, 0); font-family: helvetica; font-size: 14px; font-style: normal; font-weight: 400; letter-spacing: normal; text-align: left; text-indent: 0px; text-transform: none; word-spacing: 0px; background-color: rgb(248, 249, 250); display: inline; float: none;&quot;&gt;*.csv&lt;/span&gt;&#xa;&#xa;" style="shape=document;whiteSpace=wrap;html=1;boundedLbl=1;fontSize=14;align=left;verticalAlign=bottom;" vertex="1" parent="1">
          <mxGeometry x="-297" y="1174" width="120" height="80" as="geometry" />
        </mxCell>
        <mxCell id="HafpxJaXgJPL_smQRMil-52" value="Receiving&amp;nbsp;System 5&lt;br&gt;&lt;br&gt;&lt;span style=&quot;text-align: right&quot;&gt;Receive&amp;nbsp;&lt;/span&gt;&lt;span style=&quot;text-align: right&quot;&gt;the self-report data&lt;/span&gt;&lt;span style=&quot;text-align: right&quot;&gt;&lt;br&gt;&lt;/span&gt;" style="whiteSpace=wrap;html=1;align=left;verticalAlign=top;fillColor=#d5e8d4;strokeColor=#82b366;" vertex="1" parent="1">
          <mxGeometry x="-152" y="1034" width="190" height="70" as="geometry" />
        </mxCell>
        <mxCell id="HafpxJaXgJPL_smQRMil-53" value="" style="shape=document;whiteSpace=wrap;html=1;boundedLbl=1;fontSize=14;align=left;" vertex="1" parent="1">
          <mxGeometry x="-117" y="1144" width="120" height="80" as="geometry" />
        </mxCell>
        <mxCell id="HafpxJaXgJPL_smQRMil-54" value="" style="shape=document;whiteSpace=wrap;html=1;boundedLbl=1;fontSize=14;align=left;" vertex="1" parent="1">
          <mxGeometry x="-107" y="1154" width="120" height="80" as="geometry" />
        </mxCell>
        <mxCell id="HafpxJaXgJPL_smQRMil-55" value="" style="shape=document;whiteSpace=wrap;html=1;boundedLbl=1;fontSize=14;align=left;" vertex="1" parent="1">
          <mxGeometry x="-97" y="1164" width="120" height="80" as="geometry" />
        </mxCell>
        <mxCell id="HafpxJaXgJPL_smQRMil-56" value="&#xa;&#xa;&lt;span style=&quot;color: rgb(0, 0, 0); font-family: helvetica; font-size: 14px; font-style: normal; font-weight: 400; letter-spacing: normal; text-align: left; text-indent: 0px; text-transform: none; word-spacing: 0px; background-color: rgb(248, 249, 250); display: inline; float: none;&quot;&gt;*.csv&lt;/span&gt;&#xa;&#xa;" style="shape=document;whiteSpace=wrap;html=1;boundedLbl=1;fontSize=14;align=left;verticalAlign=bottom;" vertex="1" parent="1">
          <mxGeometry x="-87" y="1174" width="120" height="80" as="geometry" />
        </mxCell>
        <mxCell id="HafpxJaXgJPL_smQRMil-57" style="edgeStyle=orthogonalEdgeStyle;rounded=0;orthogonalLoop=1;jettySize=auto;html=1;fontSize=14;exitX=0.5;exitY=1;exitDx=0;exitDy=0;entryX=0.5;entryY=0;entryDx=0;entryDy=0;" edge="1" parent="1" source="HafpxJaXgJPL_smQRMil-36" target="HafpxJaXgJPL_smQRMil-40">
          <mxGeometry relative="1" as="geometry">
            <mxPoint x="-469.5" y="1146" as="sourcePoint" />
            <mxPoint x="-469.5" y="1236" as="targetPoint" />
          </mxGeometry>
        </mxCell>
        <mxCell id="HafpxJaXgJPL_smQRMil-58" style="edgeStyle=orthogonalEdgeStyle;rounded=0;orthogonalLoop=1;jettySize=auto;html=1;fontSize=14;exitX=0.5;exitY=1;exitDx=0;exitDy=0;entryX=0.5;entryY=0;entryDx=0;entryDy=0;" edge="1" parent="1" source="HafpxJaXgJPL_smQRMil-31" target="HafpxJaXgJPL_smQRMil-32">
          <mxGeometry relative="1" as="geometry">
            <mxPoint x="-682" y="1146" as="sourcePoint" />
            <mxPoint x="-697" y="1236" as="targetPoint" />
          </mxGeometry>
        </mxCell>
        <mxCell id="HafpxJaXgJPL_smQRMil-59" style="edgeStyle=orthogonalEdgeStyle;rounded=0;orthogonalLoop=1;jettySize=auto;html=1;fontSize=14;exitX=0.5;exitY=1;exitDx=0;exitDy=0;entryX=0.5;entryY=0;entryDx=0;entryDy=0;" edge="1" parent="1" source="HafpxJaXgJPL_smQRMil-39" target="HafpxJaXgJPL_smQRMil-48">
          <mxGeometry relative="1" as="geometry">
            <mxPoint x="-469.5" y="1146" as="sourcePoint" />
            <mxPoint x="-469.5" y="1236" as="targetPoint" />
          </mxGeometry>
        </mxCell>
        <mxCell id="HafpxJaXgJPL_smQRMil-60" style="edgeStyle=orthogonalEdgeStyle;rounded=0;orthogonalLoop=1;jettySize=auto;html=1;fontSize=14;exitX=0.5;exitY=1;exitDx=0;exitDy=0;entryX=0.5;entryY=0;entryDx=0;entryDy=0;" edge="1" parent="1" source="HafpxJaXgJPL_smQRMil-52" target="HafpxJaXgJPL_smQRMil-53">
          <mxGeometry relative="1" as="geometry">
            <mxPoint x="-459.5" y="1156" as="sourcePoint" />
            <mxPoint x="-459.5" y="1246" as="targetPoint" />
          </mxGeometry>
        </mxCell>
        <mxCell id="HafpxJaXgJPL_smQRMil-75" style="edgeStyle=orthogonalEdgeStyle;rounded=0;orthogonalLoop=1;jettySize=auto;html=1;exitX=0.5;exitY=1;exitDx=0;exitDy=0;exitPerimeter=0;" edge="1" parent="1" source="HafpxJaXgJPL_smQRMil-65" target="HafpxJaXgJPL_smQRMil-72">
          <mxGeometry relative="1" as="geometry" />
        </mxCell>
        <mxCell id="HafpxJaXgJPL_smQRMil-65" value="&lt;b&gt;&lt;font style=&quot;font-size: 13px&quot;&gt;Start receiving data&lt;/font&gt;&lt;/b&gt;" style="shape=card;whiteSpace=wrap;html=1;fillColor=#f9f7ed;strokeColor=#36393d;" vertex="1" parent="1">
          <mxGeometry x="124.25" y="980" width="173.5" height="70" as="geometry" />
        </mxCell>
        <mxCell id="HafpxJaXgJPL_smQRMil-70" style="edgeStyle=orthogonalEdgeStyle;rounded=0;orthogonalLoop=1;jettySize=auto;html=1;exitX=1;exitY=0.5;exitDx=0;exitDy=0;entryX=0.5;entryY=0;entryDx=0;entryDy=0;" edge="1" parent="1" source="HafpxJaXgJPL_smQRMil-67" target="HafpxJaXgJPL_smQRMil-67">
          <mxGeometry relative="1" as="geometry">
            <mxPoint x="480" y="950" as="targetPoint" />
            <Array as="points">
              <mxPoint x="529" y="1015" />
              <mxPoint x="529" y="950" />
              <mxPoint x="433" y="950" />
            </Array>
          </mxGeometry>
        </mxCell>
        <mxCell id="HafpxJaXgJPL_smQRMil-71" style="edgeStyle=orthogonalEdgeStyle;rounded=0;orthogonalLoop=1;jettySize=auto;html=1;entryX=1;entryY=0.5;entryDx=0;entryDy=0;" edge="1" parent="1" source="HafpxJaXgJPL_smQRMil-67" target="HafpxJaXgJPL_smQRMil-72">
          <mxGeometry relative="1" as="geometry">
            <mxPoint x="320" y="1150" as="targetPoint" />
            <Array as="points">
              <mxPoint x="433" y="1138" />
            </Array>
          </mxGeometry>
        </mxCell>
        <mxCell id="HafpxJaXgJPL_smQRMil-67" value="Input end button" style="rhombus;whiteSpace=wrap;html=1;fillColor=#d5e8d4;strokeColor=#82b366;" vertex="1" parent="1">
          <mxGeometry x="357" y="975" width="152" height="80" as="geometry" />
        </mxCell>
        <mxCell id="HafpxJaXgJPL_smQRMil-69" value="" style="edgeStyle=orthogonalEdgeStyle;rounded=0;orthogonalLoop=1;jettySize=auto;html=1;entryX=0.5;entryY=0;entryDx=0;entryDy=0;" edge="1" parent="1" target="HafpxJaXgJPL_smQRMil-67">
          <mxGeometry relative="1" as="geometry">
            <mxPoint x="212" y="950" as="sourcePoint" />
            <mxPoint x="380" y="833" as="targetPoint" />
            <Array as="points">
              <mxPoint x="433" y="950" />
            </Array>
          </mxGeometry>
        </mxCell>
        <mxCell id="HafpxJaXgJPL_smQRMil-73" value="" style="edgeStyle=orthogonalEdgeStyle;rounded=0;orthogonalLoop=1;jettySize=auto;html=1;" edge="1" parent="1" source="HafpxJaXgJPL_smQRMil-72" target="drxS9ock35KbLHNgBIPW-22">
          <mxGeometry relative="1" as="geometry" />
        </mxCell>
        <mxCell id="HafpxJaXgJPL_smQRMil-72" value="&lt;b&gt;Terminate receiving data&lt;/b&gt;" style="rounded=0;whiteSpace=wrap;html=1;fillColor=#fff2cc;strokeColor=#d6b656;" vertex="1" parent="1">
          <mxGeometry x="123.25" y="1106" width="175.75" height="64" as="geometry" />
        </mxCell>
      </root>
    </mxGraphModel>
  </diagram>
</mxfile>
